HIERARCHY
ROOT hip
{
  OFFSET 123.659 96.3635 -22.2652
  CHANNELS 6 Xposition Yposition Zposition Zrotation Xrotation Yrotation
  JOINT abdomen
  {
    OFFSET 0 -1.186 -1.50178
    CHANNELS 6 Xposition Yposition Zposition Zrotation Xrotation Yrotation
    JOINT abdomen2
    {
      OFFSET 0 9.964 0.21338
      CHANNELS 6 Xposition Yposition Zposition Zrotation Xrotation Yrotation
      JOINT chest
      {
        OFFSET 0 13.134 -3.25729
        CHANNELS 6 Xposition Yposition Zposition Zrotation Xrotation Yrotation
        JOINT neck
        {
          OFFSET 0 21.686 -1.69049
          CHANNELS 6 Xposition Yposition Zposition Zrotation Xrotation Yrotation
          JOINT head
          {
            OFFSET 0 11.838 -0.12368
            CHANNELS 6 Xposition Yposition Zposition Zrotation Xrotation Yrotation
            End Site
            {
              OFFSET 0 6.717 2.38717
            }
          }
        }
        JOINT lCollar
        {
          OFFSET 1.70688 20.075 5.0056
          CHANNELS 6 Xposition Yposition Zposition Zrotation Xrotation Yrotation
          JOINT lShldr
          {
            OFFSET 13.6458 -0.047012 -4.84902
            CHANNELS 6 Xposition Yposition Zposition Zrotation Xrotation Yrotation
            JOINT lForeArm
            {
              OFFSET 28.3255 -0.975903 2.28883
              CHANNELS 6 Xposition Yposition Zposition Zrotation Xrotation Yrotation
              JOINT lHand
              {
                OFFSET 22.1583 -0.530035 10.8316
                CHANNELS 6 Xposition Yposition Zposition Zrotation Xrotation Yrotation
                JOINT lThumb1
                {
                  OFFSET 0.785995 0.111999 2.58168
                  CHANNELS 6 Xposition Yposition Zposition Zrotation Xrotation Yrotation
                  JOINT lThumb2
                  {
                    OFFSET 0.3601 -0.878005 4.2331
                    CHANNELS 6 Xposition Yposition Zposition Zrotation Xrotation Yrotation
                    End Site
                    {
                      OFFSET 1.81271 -1.21601 2.2227
                    }
                  }
                }
                JOINT lCarpal1
                {
                  OFFSET 0.9571 1.114 1.76948
                  CHANNELS 6 Xposition Yposition Zposition Zrotation Xrotation Yrotation
                  JOINT lIndex1
                  {
                    OFFSET 4.1246 0.487 4.1451
                    CHANNELS 6 Xposition Yposition Zposition Zrotation Xrotation Yrotation
                    JOINT lIndex2
                    {
                      OFFSET 3.40521 -1.45401 2.7682
                      CHANNELS 6 Xposition Yposition Zposition Zrotation Xrotation Yrotation
                      End Site
                      {
                        OFFSET 1.4531 -1.795 1.2713
                      }
                    }
                  }
                  JOINT lMid1
                  {
                    OFFSET 5.6954 0.209991 2.1184
                    CHANNELS 6 Xposition Yposition Zposition Zrotation Xrotation Yrotation
                    JOINT lMid2
                    {
                      OFFSET 3.9766 -1.53999 2.3863
                      CHANNELS 6 Xposition Yposition Zposition Zrotation Xrotation Yrotation
                      End Site
                      {
                        OFFSET 1.4042 -1.926 1.125
                      }
                    }
                  }
                }
                JOINT lCarpal2
                {
                  OFFSET 2.09559 0.65999 -0.38939
                  CHANNELS 6 Xposition Yposition Zposition Zrotation Xrotation Yrotation
                  JOINT lRing1
                  {
                    OFFSET 5.0395 -0.089997 2.49707
                    CHANNELS 6 Xposition Yposition Zposition Zrotation Xrotation Yrotation
                    JOINT lRing2
                    {
                      OFFSET 3.7921 -1.552 1.4806
                      CHANNELS 6 Xposition Yposition Zposition Zrotation Xrotation Yrotation
                      End Site
                      {
                        OFFSET 1.4655 -1.808 0.9609
                      }
                    }
                  }
                  JOINT lPinky1
                  {
                    OFFSET 4.9141 -1.269 0.35915
                    CHANNELS 6 Xposition Yposition Zposition Zrotation Xrotation Yrotation
                    JOINT lPinky2
                    {
                      OFFSET 3.1477 -1.685 0.84623
                      CHANNELS 6 Xposition Yposition Zposition Zrotation Xrotation Yrotation
                      End Site
                      {
                        OFFSET 0.805505 -1.58499 0.79549
                      }
                    }
                  }
                }
              }
            }
          }
        }
        JOINT rCollar
        {
          OFFSET -1.70688 20.075 5.0056
          CHANNELS 6 Xposition Yposition Zposition Zrotation Xrotation Yrotation
          JOINT rShldr
          {
            OFFSET -13.6458 -0.047012 -4.84902
            CHANNELS 6 Xposition Yposition Zposition Zrotation Xrotation Yrotation
            JOINT rForeArm
            {
              OFFSET -28.3255 -0.975903 2.28883
              CHANNELS 6 Xposition Yposition Zposition Zrotation Xrotation Yrotation
              JOINT rHand
              {
                OFFSET -22.1583 -0.530036 10.8316
                CHANNELS 6 Xposition Yposition Zposition Zrotation Xrotation Yrotation
                JOINT rThumb1
                {
                  OFFSET -0.785995 0.111999 2.58168
                  CHANNELS 6 Xposition Yposition Zposition Zrotation Xrotation Yrotation
                  JOINT rThumb2
                  {
                    OFFSET -0.3601 -0.878005 4.2331
                    CHANNELS 6 Xposition Yposition Zposition Zrotation Xrotation Yrotation
                    End Site
                    {
                      OFFSET -1.81271 -1.21601 2.2227
                    }
                  }
                }
                JOINT rCarpal1
                {
                  OFFSET -0.9571 1.114 1.76948
                  CHANNELS 6 Xposition Yposition Zposition Zrotation Xrotation Yrotation
                  JOINT rIndex1
                  {
                    OFFSET -4.1246 0.487 4.1451
                    CHANNELS 6 Xposition Yposition Zposition Zrotation Xrotation Yrotation
                    JOINT rIndex2
                    {
                      OFFSET -3.40521 -1.45401 2.7682
                      CHANNELS 6 Xposition Yposition Zposition Zrotation Xrotation Yrotation
                      End Site
                      {
                        OFFSET -1.4531 -1.795 1.2713
                      }
                    }
                  }
                  JOINT rMid1
                  {
                    OFFSET -5.6954 0.209991 2.1184
                    CHANNELS 6 Xposition Yposition Zposition Zrotation Xrotation Yrotation
                    JOINT rMid2
                    {
                      OFFSET -3.9766 -1.53999 2.3863
                      CHANNELS 6 Xposition Yposition Zposition Zrotation Xrotation Yrotation
                      End Site
                      {
                        OFFSET -1.4042 -1.926 1.125
                      }
                    }
                  }
                }
                JOINT rCarpal2
                {
                  OFFSET -2.09559 0.65999 -0.38939
                  CHANNELS 6 Xposition Yposition Zposition Zrotation Xrotation Yrotation
                  JOINT rRing1
                  {
                    OFFSET -5.0395 -0.089997 2.49707
                    CHANNELS 6 Xposition Yposition Zposition Zrotation Xrotation Yrotation
                    JOINT rRing2
                    {
                      OFFSET -3.7921 -1.552 1.4806
                      CHANNELS 6 Xposition Yposition Zposition Zrotation Xrotation Yrotation
                      End Site
                      {
                        OFFSET -1.4655 -1.808 0.9609
                      }
                    }
                  }
                  JOINT rPinky1
                  {
                    OFFSET -4.9141 -1.269 0.35915
                    CHANNELS 6 Xposition Yposition Zposition Zrotation Xrotation Yrotation
                    JOINT rPinky2
                    {
                      OFFSET -3.1477 -1.685 0.84623
                      CHANNELS 6 Xposition Yposition Zposition Zrotation Xrotation Yrotation
                      End Site
                      {
                        OFFSET -0.805505 -1.58499 0.79549
                      }
                    }
                  }
                }
              }
            }
          }
        }
      }
    }
  }
  JOINT lThigh
  {
    OFFSET 8.367 -8.2066 0.59823
    CHANNELS 6 Xposition Yposition Zposition Zrotation Xrotation Yrotation
    JOINT lShin
    {
      OFFSET 2.19232 -43.463 -0.493181
      CHANNELS 6 Xposition Yposition Zposition Zrotation Xrotation Yrotation
      JOINT lFoot
      {
        OFFSET 0.733257 -45.8593 -2.64513
        CHANNELS 6 Xposition Yposition Zposition Zrotation Xrotation Yrotation
        End Site
        {
          OFFSET 2.6618 -4.26993 12.3931
        }
      }
    }
  }
  JOINT rThigh
  {
    OFFSET -8.367 -8.2066 0.59823
    CHANNELS 6 Xposition Yposition Zposition Zrotation Xrotation Yrotation
    JOINT rShin
    {
      OFFSET -2.19233 -43.463 -0.493108
      CHANNELS 6 Xposition Yposition Zposition Zrotation Xrotation Yrotation
      JOINT rFoot
      {
        OFFSET -0.733256 -45.8593 -2.64514
        CHANNELS 6 Xposition Yposition Zposition Zrotation Xrotation Yrotation
        End Site
        {
          OFFSET -2.6618 -4.26993 12.3931
        }
      }
    }
  }
}
MOTION
Frames:	4
Frame Time:	0.0333333
7.19128 103.011 -7.70407 1.51084 6.00446 -2.6624 -1.77636e-015 -1.186 -1.50178 0.0243665 -0.195872 0.245267 0 9.964 0.21338 0.0400424 -0.389239 0.493499 -1.77636e-015 13.134 -3.25729 0.0273697 -0.385667 0.497116 -1.77636e-015 21.686 -1.69049 -1.50209 -0.244995 -2.91529 0 11.838 -0.12368 1.58008 -2.02187 -3.66893 1.70688 20.075 5.0056 1.3957 -0.277877 -1.93574 13.6458 -0.047012 -4.84902 -79.2602 0.379074 3.31822 28.3255 -0.975903 2.28883 -0.0629127 1.85393 18.1003 22.1583 -0.530035 10.8316 -1.72135 1.60041 1.01152 0.785995 0.111999 2.58168 -1.19271e-015 0 3.18055e-015 0.3601 -0.878005 4.2331 2.38542e-015 3.18055e-015 3.18055e-015 0.9571 1.114 1.76948 -1.19271e-015 0 3.18055e-015 4.1246 0.487 4.1451 2.38542e-015 3.18055e-015 3.18055e-015 3.40521 -1.45401 2.7682 1.19271e-015 0 3.18055e-015 5.6954 0.209991 2.1184 2.38542e-015 3.18055e-015 3.18055e-015 3.9766 -1.53999 2.3863 1.19271e-015 0 3.18055e-015 2.09559 0.65999 -0.38939 -1.19271e-015 0 3.18055e-015 5.0395 -0.089997 2.49707 2.38542e-015 3.18055e-015 3.18055e-015 3.7921 -1.552 1.4806 1.19271e-015 0 3.18055e-015 4.9141 -1.269 0.35915 2.38542e-015 3.18055e-015 3.18055e-015 3.1477 -1.685 0.84623 1.19271e-015 0 3.18055e-015 -1.70688 20.075 5.0056 -0.854332 -0.140637 1.24436 -13.6458 -0.047012 -4.84902 78.5816 -3.38017 5.39716 -28.3255 -0.975903 2.28883 -0.391785 2.48803 -19.1959 -22.1583 -0.530036 10.8316 0.221695 0.110292 0.405289 -0.785995 0.111999 2.58168 1.98396e-015 4.19311e-017 -3.18055e-015 -0.3601 -0.878005 4.2331 1.98396e-015 3.43214e-016 -0 -0.9571 1.114 1.76948 1.98396e-015 4.19311e-017 -3.18055e-015 -4.1246 0.487 4.1451 1.98396e-015 3.43214e-016 -0 -3.40521 -1.45401 2.7682 -1.07157e-015 7.37677e-016 -3.18055e-015 -5.6954 0.209991 2.1184 1.98396e-015 3.43214e-016 -0 -3.9766 -1.53999 2.3863 -1.07157e-015 7.37677e-016 -3.18055e-015 -2.09559 0.65999 -0.38939 1.98396e-015 4.19311e-017 -3.18055e-015 -5.0395 -0.089997 2.49707 1.98396e-015 3.43214e-016 -0 -3.7921 -1.552 1.4806 -1.07157e-015 7.37677e-016 -3.18055e-015 -4.9141 -1.269 0.35915 1.98396e-015 3.43214e-016 -0 -3.1477 -1.685 0.84623 -1.07157e-015 7.37677e-016 -3.18055e-015 8.367 -8.2066 0.59823 -5.73918 -15.1461 1.50315 2.19232 -43.463 -0.493181 -0.671123 6.67448 1.54195 0.733257 -45.8593 -2.64513 -0.00679346 2.24641 -0.559664 -8.367 -8.2066 0.59823 -4.12647 -19.7203 4.10964 -2.19233 -43.463 -0.493108 2.03847 15.2795 3.41354 -0.733256 -45.8593 -2.64514 2.28187 -1.3363 -2.57147 
7.7155 102.833 -7.7887 1.22545 6.19566 -3.14363 0 -1.186 -1.50178 0.0289451 -0.195469 0.308148 -1.77636e-015 9.964 0.21338 0.0475317 -0.387505 0.619379 0 13.134 -3.25729 0.0323399 -0.383019 0.623091 0 21.686 -1.69049 -1.35166 -0.25521 -2.41873 8.88179e-016 11.838 -0.12368 1.03713 -2.2584 -3.07739 1.70688 20.075 5.0056 1.56992 -0.28796 -1.93503 13.6458 -0.047012 -4.84902 -78.7298 -0.843403 3.01476 28.3255 -0.975903 2.28883 -0.622772 0.836148 18.428 22.1583 -0.530035 10.8316 -1.35384 1.20432 0.599899 0.785995 0.111999 2.58168 3.18055e-015 0 -3.18055e-015 0.3601 -0.878005 4.2331 -3.18055e-015 -7.95139e-016 -0 0.9571 1.114 1.76948 3.18055e-015 0 -3.18055e-015 4.1246 0.487 4.1451 -3.18055e-015 -7.95139e-016 -0 3.40521 -1.45401 2.7682 -2.38542e-015 0 -6.36111e-015 5.6954 0.209991 2.1184 -3.18055e-015 -7.95139e-016 -0 3.9766 -1.53999 2.3863 -2.38542e-015 0 -6.36111e-015 2.09559 0.65999 -0.38939 3.18055e-015 0 -3.18055e-015 5.0395 -0.089997 2.49707 -3.18055e-015 -7.95139e-016 -0 3.7921 -1.552 1.4806 -2.38542e-015 0 -6.36111e-015 4.9141 -1.269 0.35915 -3.18055e-015 -7.95139e-016 -0 3.1477 -1.685 0.84623 -2.38542e-015 0 -6.36111e-015 -1.70688 20.075 5.0056 -0.553962 -0.116 0.951368 -13.6458 -0.047012 -4.84902 79.0034 -6.21197 5.66318 -28.3255 -0.975903 2.28883 -0.573425 2.02849 -19.1983 -22.1583 -0.530036 10.8316 -0.445473 -0.339671 0.842256 -0.785995 0.111999 2.58168 -5.96354e-016 7.95139e-016 -3.18055e-015 -0.3601 -0.878005 4.2331 -3.97569e-016 2.38542e-015 -0 -0.9571 1.114 1.76948 -5.96354e-016 7.95139e-016 -3.18055e-015 -4.1246 0.487 4.1451 -3.97569e-016 2.38542e-015 -0 -3.40521 -1.45401 2.7682 -1.98785e-016 1.59028e-015 -0 -5.6954 0.209991 2.1184 -3.97569e-016 2.38542e-015 -0 -3.9766 -1.53999 2.3863 -1.98785e-016 1.59028e-015 -0 -2.09559 0.65999 -0.38939 -5.96354e-016 7.95139e-016 -3.18055e-015 -5.0395 -0.089997 2.49707 -3.97569e-016 2.38542e-015 -0 -3.7921 -1.552 1.4806 -1.98785e-016 1.59028e-015 -0 -4.9141 -1.269 0.35915 -3.97569e-016 2.38542e-015 -0 -3.1477 -1.685 0.84623 -1.98785e-016 1.59028e-015 -0 8.367 -8.2066 0.59823 -5.72868 -16.1887 1.6526 2.19232 -43.463 -0.493181 -0.512667 8.2135 1.38669 0.733257 -45.8593 -2.64513 0.251019 1.46601 -0.10642 -8.367 -8.2066 0.59823 -3.89714 -21.2848 4.42707 -2.19233 -43.463 -0.493108 2.50917 17.4981 4.83275 -0.733256 -45.8593 -2.64514 2.2333 -1.94669 -4.9253 
8.27098 102.751 -7.83912 1.07686 6.31524 -3.07862 1.77636e-015 -1.186 -1.50178 0.00869421 -0.20257 0.250591 0 9.964 0.21338 0.00852322 -0.402285 0.503701 0 13.134 -3.25729 -0.00444516 -0.398406 0.506784 0 21.686 -1.69049 -1.4742 0.113829 -1.82144 0 11.838 -0.12368 0.720304 -2.71603 -2.55025 1.70688 20.075 5.0056 1.38054 -0.266865 -1.84614 13.6458 -0.047012 -4.84902 -77.9812 -1.68249 2.64577 28.3255 -0.975903 2.28883 -0.549475 0.721809 18.6029 22.1583 -0.530035 10.8316 -0.964541 0.856858 -0.0318621 0.785995 0.111999 2.58168 -3.18055e-015 0 -3.18055e-015 0.3601 -0.878005 4.2331 3.97569e-016 7.95139e-016 -0 0.9571 1.114 1.76948 -3.18055e-015 0 -3.18055e-015 4.1246 0.487 4.1451 3.97569e-016 7.95139e-016 -0 3.40521 -1.45401 2.7682 3.97569e-016 7.95139e-016 -0 5.6954 0.209991 2.1184 3.97569e-016 7.95139e-016 -0 3.9766 -1.53999 2.3863 3.97569e-016 7.95139e-016 -0 2.09559 0.65999 -0.38939 -3.18055e-015 0 -3.18055e-015 5.0395 -0.089997 2.49707 3.97569e-016 7.95139e-016 -0 3.7921 -1.552 1.4806 3.97569e-016 7.95139e-016 -0 4.9141 -1.269 0.35915 3.97569e-016 7.95139e-016 -0 3.1477 -1.685 0.84623 3.97569e-016 7.95139e-016 -0 -1.70688 20.075 5.0056 -0.0854642 -0.135923 0.794556 -13.6458 -0.047012 -4.84902 79.2604 -8.0977 5.62668 -28.3255 -0.975903 2.28883 -0.500885 1.01263 -18.7561 -22.1583 -0.530036 10.8316 -0.698185 -0.580949 1.85304 -0.785995 0.111999 2.58168 -7.95139e-016 -7.95139e-016 -0 -0.3601 -0.878005 4.2331 -3.97569e-016 2.38542e-015 -3.18055e-015 -0.9571 1.114 1.76948 -7.95139e-016 -7.95139e-016 -0 -4.1246 0.487 4.1451 -3.97569e-016 2.38542e-015 -3.18055e-015 -3.40521 -1.45401 2.7682 3.97569e-016 7.95139e-016 -3.18055e-015 -5.6954 0.209991 2.1184 -3.97569e-016 2.38542e-015 -3.18055e-015 -3.9766 -1.53999 2.3863 3.97569e-016 7.95139e-016 -3.18055e-015 -2.09559 0.65999 -0.38939 -7.95139e-016 -7.95139e-016 -0 -5.0395 -0.089997 2.49707 -3.97569e-016 2.38542e-015 -3.18055e-015 -3.7921 -1.552 1.4806 3.97569e-016 7.95139e-016 -3.18055e-015 -4.9141 -1.269 0.35915 -3.97569e-016 2.38542e-015 -3.18055e-015 -3.1477 -1.685 0.84623 3.97569e-016 7.95139e-016 -3.18055e-015 8.367 -8.2066 0.59823 -6.13751 -16.4004 0.950227 2.19232 -43.463 -0.493181 -0.228134 8.2973 1.95629 0.733257 -45.8593 -2.64513 0.483278 1.48786 -0.150001 -8.367 -8.2066 0.59823 -3.70648 -23.0991 3.98469 -2.19233 -43.463 -0.493108 2.60494 20.3856 5.63939 -0.733256 -45.8593 -2.64514 4.04995 -3.12758 -8.58195 
8.53714 102.826 -7.80257 0.690737 6.11913 -3.46611 -1.77636e-015 -1.186 -1.50178 0.0638803 -0.176259 0.326706 0 9.964 0.21338 0.116992 -0.349049 0.657434 1.77636e-015 13.134 -3.25729 0.101304 -0.344751 0.662238 -1.77636e-015 21.686 -1.69049 -2.2472 0.488982 -1.2097 4.44089e-016 11.838 -0.12368 0.855249 -2.90971 -2.24003 1.70688 20.075 5.0056 1.20185 -0.251609 -1.80301 13.6458 -0.047012 -4.84902 -77.8437 -4.00417 2.62982 28.3255 -0.975903 2.28883 -0.0855655 0.915336 18.6802 22.1583 -0.530035 10.8316 -1.05953 0.985073 0.18261 0.785995 0.111999 2.58168 5.96354e-016 -3.97569e-016 -0 0.3601 -0.878005 4.2331 -7.95139e-016 7.95139e-016 3.18055e-015 0.9571 1.114 1.76948 5.96354e-016 -3.97569e-016 -0 4.1246 0.487 4.1451 -7.95139e-016 7.95139e-016 3.18055e-015 3.40521 -1.45401 2.7682 2.88238e-015 -3.97569e-016 -0 5.6954 0.209991 2.1184 -7.95139e-016 7.95139e-016 3.18055e-015 3.9766 -1.53999 2.3863 2.88238e-015 -3.97569e-016 -0 2.09559 0.65999 -0.38939 5.96354e-016 -3.97569e-016 -0 5.0395 -0.089997 2.49707 -7.95139e-016 7.95139e-016 3.18055e-015 3.7921 -1.552 1.4806 2.88238e-015 -3.97569e-016 -0 4.9141 -1.269 0.35915 -7.95139e-016 7.95139e-016 3.18055e-015 3.1477 -1.685 0.84623 2.88238e-015 -3.97569e-016 -0 -1.70688 20.075 5.0056 -0.386846 -0.0798378 0.663582 -13.6458 -0.047012 -4.84902 80.3471 -10.0701 5.60027 -28.3255 -0.975903 2.28883 -0.331251 1.24759 -18.2691 -22.1583 -0.530036 10.8316 -0.552899 -0.4787 1.74149 -0.785995 0.111999 2.58168 -0 0 3.18055e-015 -0.3601 -0.878005 4.2331 2.38542e-015 0 -0 -0.9571 1.114 1.76948 -0 0 3.18055e-015 -4.1246 0.487 4.1451 2.38542e-015 0 -0 -3.40521 -1.45401 2.7682 7.95139e-016 0 -0 -5.6954 0.209991 2.1184 2.38542e-015 0 -0 -3.9766 -1.53999 2.3863 7.95139e-016 0 -0 -2.09559 0.65999 -0.38939 -0 0 3.18055e-015 -5.0395 -0.089997 2.49707 2.38542e-015 0 -0 -3.7921 -1.552 1.4806 7.95139e-016 0 -0 -4.9141 -1.269 0.35915 2.38542e-015 0 -0 -3.1477 -1.685 0.84623 7.95139e-016 0 -0 8.367 -8.2066 0.59823 -5.77781 -15.8056 1.572 2.19232 -43.463 -0.493181 -0.189284 7.6324 1.8274 0.733257 -45.8593 -2.64513 0.841038 1.66001 -0.191636 -8.367 -8.2066 0.59823 -3.07883 -23.8439 4.53793 -2.19233 -43.463 -0.493108 3.78304 22.1228 4.81515 -0.733256 -45.8593 -2.64514 3.0829 -5.67442 -9.68174 
